<svg width="157" height="126" viewBox="0 0 157 126" fill="none" xmlns="http://www.w3.org/2000/svg">
<g clip-path="url(#clip0_21_367)">
<path d="M32.6094 0.5C23.6512 0.5 17.0222 8.33395 17.3191 16.8297C17.6042 24.9914 17.2338 35.5631 14.5703 44.1838C11.8989 52.8297 7.38023 58.3064 0 59.0098V66.9485C7.38023 67.652 11.8989 73.1287 14.5703 81.7751C17.2338 90.3958 17.6042 100.966 17.3191 109.129C17.0222 117.623 23.6512 125.458 32.6106 125.458H124.402C133.361 125.458 139.988 117.624 139.691 109.129C139.407 100.967 139.777 90.3958 142.44 81.7751C145.113 73.1293 149.62 67.6514 157 66.9485V59.0098C149.62 58.3064 145.113 52.8297 142.441 44.1838C139.777 35.5643 139.407 24.992 139.691 16.8297C139.988 8.33517 133.361 0.5 124.402 0.5H32.6082H32.6094ZM106.441 77.4197C106.441 89.1183 97.708 96.2126 83.2149 96.2126H58.5426C57.837 96.2125 57.1603 95.9323 56.6614 95.4337C56.1625 94.9351 55.8822 94.2589 55.8822 93.5539V32.4044C55.8821 32.0552 55.9509 31.7094 56.0846 31.3868C56.2183 31.0641 56.4143 30.771 56.6614 30.524C56.9085 30.2771 57.2019 30.0812 57.5247 29.9475C57.8476 29.8139 58.1937 29.7451 58.5432 29.7451H83.0738C95.1586 29.7451 103.09 36.2862 103.09 46.3278C103.09 53.3762 97.754 59.6863 90.957 60.7911V61.1593C100.211 62.1734 106.441 68.576 106.441 77.4197ZM80.5238 38.1734H66.457V58.0264H78.3056C87.4643 58.0264 92.5153 54.3413 92.5153 47.7543C92.5153 41.5821 88.1721 38.1734 80.5244 38.1734H80.5238ZM66.457 65.9038V87.7819H81.0421C90.5773 87.7819 95.6296 83.9589 95.6296 76.7739C95.6296 69.5876 90.4369 65.9026 80.4288 65.9026H66.457V65.9038Z" fill="#7E13F8"/>
</g>
<defs>
<clipPath id="clip0_21_367">
<rect width="157" height="125" fill="white" transform="translate(0 0.5)"/>
</clipPath>
</defs>
</svg>
