<svg width="125" height="142" viewBox="0 0 125 142" fill="none" xmlns="http://www.w3.org/2000/svg">
<g clip-path="url(#clip0_21_358)">
<path d="M11.3719 127.805L0 0H125L113.613 127.785L62.424 142L11.3719 127.805Z" fill="#1572B6"/>
<path d="M62.5 123.62L94.4141 113.569L101.922 18.0207H62.5V123.62Z" fill="#33A9DC"/>
<path d="M62.1508 57.2429H82.7888L84.2117 41.1258H62.1508V25.3855H101.257L100.884 29.607L97.0537 72.9832H62.1508V57.2429Z" fill="white"/>
<path d="M62.1508 97.213L62.0816 97.2332L45.0622 92.5461L43.9744 80.1229H28.6313L30.7723 104.581L62.0767 113.441L62.1508 113.421V97.213Z" fill="#EBEBEB"/>
<path d="M81.8057 72.1899L79.8912 92.7982L62.1508 97.4287V113.441L94.7597 104.698L95.0016 102.099L97.7653 72.1899H81.8057Z" fill="white"/>
<path d="M62.1509 25.3855V41.1258H25.1171L24.8095 37.5866L24.1101 29.607L23.743 25.3855H62.1509ZM62.0963 57.2429V72.9832H45.2361L44.9286 69.4441L44.2342 61.4644L43.8671 57.2429H62.0963Z" fill="#EBEBEB"/>
</g>
<defs>
<clipPath id="clip0_21_358">
<rect width="125" height="142" fill="white"/>
</clipPath>
</defs>
</svg>
