<svg width="104" height="158" viewBox="0 0 104 158" fill="none" xmlns="http://www.w3.org/2000/svg">
<g clip-path="url(#clip0_21_373)">
<path d="M26 157.5C40.352 157.5 52 145.777 52 131.333V105.167H26C11.648 105.167 0 116.889 0 131.333C0 145.777 11.648 157.5 26 157.5Z" fill="#0ACF83"/>
<path d="M0 79C0 64.556 11.648 52.8333 26 52.8333H52V105.167H26C11.648 105.167 0 93.444 0 79Z" fill="#A259FF"/>
<path d="M0 26.6667C0 12.2227 11.648 0.5 26 0.5H52V52.8333H26C11.648 52.8333 0 41.1107 0 26.6667Z" fill="#F24E1E"/>
<path d="M52 0.5H78C92.352 0.5 104 12.2227 104 26.6667C104 41.1107 92.352 52.8333 78 52.8333H52V0.5Z" fill="#FF7262"/>
<path d="M104 79C104 93.444 92.352 105.167 78 105.167C63.648 105.167 52 93.444 52 79C52 64.556 63.648 52.8333 78 52.8333C92.352 52.8333 104 64.556 104 79Z" fill="#1ABCFE"/>
</g>
<defs>
<clipPath id="clip0_21_373">
<rect width="104" height="157" fill="white" transform="translate(0 0.5)"/>
</clipPath>
</defs>
</svg>
