<svg width="158" height="158" viewBox="0 0 158 158" fill="none" xmlns="http://www.w3.org/2000/svg">
<path d="M155.013 71.959L86.0235 2.98092C85.0789 2.03588 83.9573 1.28621 82.7229 0.774735C81.4885 0.263258 80.1654 0 78.8292 0C77.493 0 76.1699 0.263258 74.9355 0.774735C73.7011 1.28621 72.5796 2.03588 71.635 2.98092L57.3156 17.2999L75.4864 35.4702C77.6294 34.7386 79.9349 34.6241 82.1399 35.1399C84.3448 35.6557 86.3604 36.781 87.9564 38.3873C89.5525 39.9936 90.6648 42.0163 91.1664 44.2244C91.6681 46.4326 91.5387 48.7373 90.7933 50.8755L108.302 68.3941C110.893 67.482 113.717 67.4792 116.309 68.3862C118.901 69.2932 121.107 71.0559 122.564 73.384C124.021 75.7121 124.641 78.4668 124.323 81.1946C124.005 83.9224 122.768 86.4606 120.815 88.3913C118.837 90.3806 116.231 91.6217 113.44 91.9027C110.649 92.1836 107.848 91.487 105.514 89.9318C103.18 88.3765 101.458 86.0592 100.643 83.3755C99.8275 80.6919 99.9693 77.8085 101.044 75.2178L84.7199 58.8843V101.871C87.2012 103.099 89.1866 105.141 90.3451 107.655C91.5037 110.17 91.7654 113.005 91.0867 115.689C90.408 118.373 88.8298 120.744 86.6153 122.405C84.4007 124.067 81.6836 124.919 78.9167 124.821C76.1498 124.722 73.5004 123.678 71.4101 121.862C69.3197 120.047 67.9147 117.57 67.4292 114.844C66.9437 112.119 67.407 109.309 68.742 106.884C70.077 104.458 72.2029 102.563 74.7655 101.515V58.1338C73.287 57.528 71.9431 56.6355 70.8112 55.5079C69.6792 54.3803 68.7817 53.0398 68.1703 51.5636C67.5589 50.0875 67.2458 48.505 67.2489 46.9072C67.252 45.3095 67.5713 43.7282 68.1884 42.2545L50.2843 24.3409L2.981 71.643C2.03594 72.5876 1.28624 73.7091 0.774755 74.9435C0.263265 76.1778 0 77.5009 0 78.8371C0 80.1732 0.263265 81.4963 0.774755 82.7307C1.28624 83.965 2.03594 85.0865 2.981 86.0311L71.9707 155.019C72.9153 155.964 74.0369 156.714 75.2713 157.225C76.5057 157.737 77.8288 158 79.165 158C80.5012 158 81.8243 157.737 83.0587 157.225C84.2931 156.714 85.4146 155.964 86.3592 155.019L155.023 86.357C156.929 84.4481 158 81.8606 158 79.1629C158 76.4652 156.929 73.8778 155.023 71.9689" fill="#E84D31"/>
</svg>
