<svg width="129" height="142" viewBox="0 0 129 142" fill="none" xmlns="http://www.w3.org/2000/svg">
<g clip-path="url(#clip0_21_353)">
<path d="M11.7401 127.405L0 0.5H129L117.244 127.385L64.4216 141.5L11.7401 127.405Z" fill="#E44F26"/>
<path d="M64.1396 130.472L106.729 119.076L116.749 10.7402H64.1396V130.472Z" fill="#F1662A"/>
<path d="M64.1397 58.0276H43.2216L41.7794 42.0745H64.1397V26.4944H24.5028L24.8813 30.678L28.7631 73.6078H64.1397V58.0276ZM64.1397 98.4875L64.0681 98.5077L46.4642 93.8251L45.339 81.4003H29.4689L31.6835 105.857L64.0681 114.718L64.1397 114.698V98.4875Z" fill="#EBEBEB"/>
<path d="M64.1396 58.0294V73.6104H83.977L82.1111 93.8189L64.1396 98.5068V114.718L97.1689 105.861L97.4087 103.23L101.193 62.2133L101.589 58.0294H64.1396ZM64.1396 26.4944V42.0754H103.053L103.377 38.5771L104.111 30.6783L104.497 26.4944H64.1396Z" fill="white"/>
</g>
<defs>
<clipPath id="clip0_21_353">
<rect width="129" height="141" fill="white" transform="translate(0 0.5)"/>
</clipPath>
</defs>
</svg>
