<svg width="157" height="158" viewBox="0 0 157 158" fill="none" xmlns="http://www.w3.org/2000/svg">
<g clip-path="url(#clip0_21_348)">
<path d="M0 0.5H157V157.5H0V0.5Z" fill="#F7DF1E"/>
<path d="M41.2812 131.7L53.2954 124.429C55.6136 128.539 57.722 132.016 62.7798 132.016C67.6278 132.016 70.685 130.12 70.685 122.744V72.5783H85.4387V122.952C85.4387 138.233 76.4811 145.189 63.4121 145.189C51.6095 145.189 44.7585 139.076 41.2806 131.699M93.4524 130.119L105.465 123.164C108.628 128.329 112.738 132.122 120.009 132.122C126.123 132.122 130.021 129.066 130.021 124.85C130.021 119.792 126.016 118 119.272 115.05L115.584 113.468C104.939 108.937 97.8785 103.246 97.8785 91.2319C97.8785 80.1659 106.309 71.7345 119.483 71.7345C128.863 71.7345 135.608 75.002 140.455 83.5383L128.967 90.9161C126.437 86.3845 123.698 84.5931 119.483 84.5931C115.161 84.5931 112.421 87.3333 112.421 90.9161C112.421 95.3421 115.161 97.1347 121.484 99.8749L125.173 101.455C137.714 106.831 144.775 112.31 144.775 124.64C144.775 137.92 134.342 145.191 120.325 145.191C106.625 145.191 97.7724 138.657 93.4518 130.12" fill="black"/>
</g>
<defs>
<clipPath id="clip0_21_348">
<rect width="157" height="157" fill="white" transform="translate(0 0.5)"/>
</clipPath>
</defs>
</svg>
