<svg width="157" height="140" viewBox="0 0 157 140" fill="none" xmlns="http://www.w3.org/2000/svg">
<g clip-path="url(#clip0_21_351)">
<path d="M129.085 45.5068C127.414 44.937 125.729 44.409 124.032 43.9236C124.317 42.7652 124.58 41.6209 124.813 40.4967C128.638 22.0359 126.137 7.16354 117.595 2.26684C109.404 -2.42746 96.0098 2.46741 82.482 14.1708C81.1488 15.3263 79.8452 16.5151 78.5724 17.7361C77.7203 16.9242 76.8532 16.128 75.9714 15.3481C61.7936 2.83442 47.5827 -2.43965 39.0495 2.47107C30.8664 7.18 28.4434 21.1611 31.8876 38.6568C32.2302 40.3896 32.6171 42.1134 33.0479 43.8266C31.0363 44.3948 29.0953 44.9996 27.2377 45.6434C10.6153 51.4046 0 60.4329 0 69.7977C0 79.4698 11.396 89.1711 28.7089 95.0536C30.1125 95.5286 31.5278 95.9687 32.9534 96.3735C32.4904 98.2187 32.0794 100.076 31.7207 101.944C28.4372 119.137 31.0014 132.787 39.1623 137.466C47.5912 142.298 61.7384 137.332 75.5133 125.362C76.6303 124.389 77.7227 123.388 78.7895 122.36C80.1678 123.682 81.583 124.966 83.0334 126.21C96.3771 137.624 109.555 142.233 117.708 137.541C126.129 132.695 128.866 118.03 125.313 100.189C125.033 98.7909 124.719 97.4001 124.372 96.0175C125.365 95.7248 126.34 95.4237 127.291 95.1103C145.289 89.1827 157 79.599 157 69.7977C157 60.3987 146.042 51.3095 129.085 45.5068ZM125.182 88.7822C124.323 89.0644 123.442 89.3369 122.545 89.6021C120.558 83.349 117.876 76.7001 114.595 69.83C117.726 63.1238 120.304 56.5597 122.236 50.3474C123.842 50.8095 125.4 51.2966 126.903 51.8106C141.431 56.7829 150.293 64.1334 150.293 69.7977C150.293 75.8308 140.722 83.6629 125.182 88.7822ZM118.734 101.484C120.305 109.372 120.529 116.505 119.488 122.082C118.553 127.092 116.673 130.433 114.348 131.771C109.4 134.618 98.8192 130.917 87.4079 121.156C86.0589 119.999 84.7425 118.806 83.4602 117.577C87.8844 112.768 92.3056 107.176 96.6206 100.967C104.211 100.297 111.381 99.2023 117.884 97.708C118.197 98.9597 118.48 100.219 118.734 101.484ZM53.5247 131.279C48.6909 132.976 44.8407 133.024 42.5133 131.69C37.561 128.851 35.5022 117.89 38.3105 103.188C38.6443 101.451 39.0265 99.723 39.4567 98.0068C45.8875 99.4211 53.0059 100.438 60.6137 101.051C64.9581 107.128 69.5068 112.713 74.0911 117.603C73.1169 118.54 72.1196 119.454 71.1002 120.342C65.0084 125.635 58.9044 129.39 53.5247 131.279ZM30.8787 88.745C23.2231 86.1436 16.9008 82.7631 12.5674 79.0741C8.67302 75.7594 6.70746 72.4679 6.70746 69.7977C6.70746 64.1145 15.2302 56.8658 29.4455 51.9392C31.1706 51.3418 32.9761 50.7778 34.8497 50.2487C36.8147 56.6012 39.3917 63.2433 42.5016 69.9598C39.3512 76.7757 36.7374 83.5239 34.7534 89.9515C33.4521 89.5809 32.1601 89.1786 30.8787 88.745ZM38.4699 37.3759C35.5194 22.3865 37.4788 11.0793 42.4102 8.2414C47.6624 5.21876 59.2767 9.52837 71.5184 20.3338C72.3167 21.04 73.102 21.7605 73.874 22.495C69.3124 27.3643 64.8054 32.9078 60.4996 38.9482C53.1157 39.6286 46.0476 40.7211 39.5493 42.1848C39.1489 40.5913 38.789 38.9881 38.4699 37.3765V37.3759ZM106.193 53.9998C104.658 51.3643 103.066 48.7619 101.418 46.1945C106.428 46.8243 111.227 47.6601 115.734 48.6819C114.381 52.9933 112.695 57.5004 110.71 62.1216C109.258 59.3847 107.753 56.6769 106.193 53.9998ZM78.5754 27.26C81.6688 30.5917 84.7671 34.3112 87.8145 38.3471C81.6326 38.0569 75.4405 38.0556 69.2585 38.3434C72.3089 34.3447 75.4336 30.6302 78.5754 27.26ZM50.7809 54.0456C49.2406 56.7011 47.7628 59.392 46.3487 62.1161C44.396 57.5114 42.7249 52.9836 41.3603 48.6111C45.8397 47.615 50.6166 46.8005 55.5939 46.1823C53.9279 48.7654 52.3231 51.387 50.7809 54.0449V54.0456ZM55.7368 93.8874C50.5945 93.3167 45.7459 92.5443 41.2677 91.575C42.6537 87.1245 44.3617 82.5003 46.3567 77.7969C47.7763 80.523 49.2603 83.2155 50.8073 85.8723C52.3981 88.6035 54.0454 91.2787 55.7368 93.8874ZM78.7606 112.805C75.5814 109.396 72.4107 105.624 69.3143 101.567C72.3206 101.684 75.3851 101.744 78.5 101.744C81.7001 101.744 84.8634 101.673 87.977 101.535C84.9198 105.665 81.8332 109.442 78.7606 112.805ZM110.773 77.5567C112.871 82.3119 114.64 86.9117 116.044 91.286C111.493 92.3187 106.578 93.1503 101.399 93.7679C103.059 91.1528 104.666 88.5052 106.219 85.8266C107.798 83.1039 109.317 80.3465 110.773 77.5567ZM100.409 82.4955C98.0313 86.6023 95.5194 90.6311 92.8778 94.5756C88.0927 94.9125 83.2971 95.0799 78.5 95.0774C73.614 95.0774 68.8617 94.9262 64.2854 94.6311C61.5748 90.6957 59.015 86.6598 56.6114 82.532H56.612C54.2197 78.4261 51.9851 74.2313 49.9131 69.9568C51.9799 65.6813 54.2076 61.4845 56.5918 57.3755L56.5911 57.3761C58.9743 53.266 61.5137 49.2473 64.2038 45.3288C68.8727 44.9776 73.6606 44.7947 78.4994 44.7947H78.5C83.3609 44.7947 88.1549 44.9795 92.8226 45.3331C95.4855 49.2457 98.0087 53.2505 100.387 57.3401C102.779 61.4401 105.037 65.6164 107.156 69.8623C105.058 74.1516 102.808 78.3653 100.409 82.4955ZM114.245 8.04266C119.502 11.0568 121.547 23.2113 118.244 39.1506C118.033 40.1675 117.796 41.2033 117.538 42.2537C111.024 40.7589 103.951 39.6475 96.5458 38.9567C92.232 32.8499 87.7618 27.2978 83.2744 22.4913C84.4504 21.3644 85.6545 20.2667 86.8854 19.1992C98.4764 9.17234 109.309 5.21327 114.245 8.04266ZM78.5 55.8611C86.2427 55.8611 92.5196 62.1009 92.5196 69.7977C92.5196 77.4945 86.2427 83.7343 78.5 83.7343C70.7573 83.7343 64.4804 77.4945 64.4804 69.7977C64.4804 62.1009 70.7573 55.8611 78.5 55.8611Z" fill="#00D8FF"/>
</g>
<defs>
<clipPath id="clip0_21_351">
<rect width="157" height="139" fill="white" transform="translate(0 0.5)"/>
</clipPath>
</defs>
</svg>
