<svg width="162" height="124" viewBox="0 0 162 124" fill="none" xmlns="http://www.w3.org/2000/svg">
<g clip-path="url(#clip0_21_371)">
<path d="M139.397 71.298C133.761 71.3275 128.862 72.7016 124.761 74.7331C123.255 71.7157 121.751 69.0276 121.485 67.0558C121.19 64.756 120.836 63.3517 121.19 60.6034C121.544 57.8551 123.138 53.9416 123.108 53.643C123.079 53.3445 122.754 51.9403 119.508 51.9108C116.262 51.8807 113.459 52.538 113.134 53.4041C112.81 54.2702 112.19 56.2421 111.777 58.2728C111.216 61.2607 105.285 71.9246 101.892 77.5108C100.8 75.3308 99.8559 73.4185 99.649 71.8951C99.3541 69.5952 98.9998 68.191 99.3541 65.4427C99.7085 62.6944 101.302 58.7815 101.272 58.4823C101.242 58.1838 100.918 56.7795 97.6721 56.7501C94.4258 56.72 91.6224 57.3772 91.2984 58.2434C90.9738 59.1101 90.6194 61.1409 89.941 63.1128C89.262 65.0846 81.3835 82.8888 79.318 87.4885C78.4833 89.3503 77.6077 91.193 76.6918 93.0152C76.6918 93.0152 76.6621 93.1049 76.5735 93.2542C76.2858 93.8255 75.9909 94.3932 75.6888 94.9569V94.9864C75.2459 95.7936 74.7738 96.5399 74.5378 96.5399C74.3606 96.5399 74.0359 94.3893 74.5966 91.4617C75.7768 85.2784 78.5802 75.6594 78.551 75.3308C78.551 75.1514 79.082 73.4787 76.7216 72.6119C74.4194 71.7458 73.5936 73.1795 73.3867 73.1795C73.1804 73.1795 73.0323 73.6876 73.0323 73.6876C73.0323 73.6876 75.6003 62.8738 68.1343 62.8738C63.4724 62.8738 57.0392 68.0417 53.8524 72.7016C50.2296 74.6974 46.6099 76.699 42.9933 78.7062C41.2531 79.6921 39.4527 80.678 37.7707 81.6038C37.6524 81.4846 37.5347 81.3347 37.4163 81.2155C28.3867 71.4473 11.6856 64.5465 12.3937 51.4329C12.6595 46.6532 14.282 34.1065 44.469 18.8718C69.3145 6.47446 89.0855 9.90949 92.5084 17.5272C97.4063 28.4011 81.9151 48.5949 56.2425 51.5219C46.4459 52.6276 41.3113 48.8038 40.0134 47.37C38.656 45.8761 38.4491 45.7864 37.9473 46.0856C37.1215 46.534 37.6524 47.8781 37.9473 48.6545C38.7149 50.6853 41.872 54.2702 47.2129 56.0332C51.9343 57.5861 63.4129 58.4528 77.3114 53.0159C92.8621 46.9216 105.02 29.9841 101.449 15.7949C97.8784 1.39622 74.272 -3.35337 51.9343 4.68199C38.656 9.46233 24.2557 16.9897 13.8985 26.788C1.59346 38.4378 -0.354338 48.5648 0.442373 52.807C3.30522 67.8624 23.8134 77.6607 32.0166 84.9196C31.6033 85.1586 31.2192 85.3681 30.8952 85.5474C26.7933 87.6083 11.154 95.8826 7.25903 104.635C2.83314 114.553 7.96778 121.663 11.3609 122.618C21.8953 125.576 32.7247 120.259 38.5377 111.476C44.3507 102.694 43.6426 91.2823 40.9576 86.0548C40.9278 85.9952 40.8987 85.935 40.8392 85.8754C41.9017 85.2483 42.9933 84.591 44.0558 83.9638C46.0086 82.7952 47.9862 81.6695 49.9872 80.5877C48.9835 83.3661 48.2457 86.682 47.8919 91.4617C47.449 97.078 49.7207 104.366 52.7013 107.234C54.0296 108.489 55.5932 108.519 56.5969 108.519C60.0786 108.519 61.6429 105.591 63.3838 102.126C65.5082 97.8846 67.4262 92.9556 67.4262 92.9556C67.4262 92.9556 65.0361 106.279 71.5281 106.279C73.8885 106.279 76.2786 103.172 77.3411 101.589V101.618C77.3411 101.618 77.4 101.528 77.5183 101.32C77.7543 100.931 77.9018 100.692 77.9018 100.692V100.633C78.8459 98.9596 80.9709 95.1658 84.128 88.8627C88.2002 80.7376 92.1249 70.5812 92.1249 70.5812C92.1249 70.5812 92.4793 73.0604 93.6886 77.1828C94.3973 79.6024 95.8718 82.261 97.0526 84.8299C96.1084 86.1746 95.518 86.9209 95.518 86.9209L95.5478 86.951C94.7802 87.9664 93.9543 89.0715 93.0393 90.1478C89.8227 94.0306 85.9872 98.4823 85.4557 99.7661C84.8355 101.29 84.9836 102.395 86.1644 103.291C87.02 103.949 88.5539 104.038 90.1182 103.949C93.0102 103.739 95.0459 103.022 96.049 102.575C97.6133 102.007 99.4427 101.14 101.154 99.8558C104.312 97.4957 106.229 94.1203 106.052 89.6699C105.964 87.2201 105.167 84.7704 104.193 82.4699C104.489 82.0522 104.754 81.6339 105.049 81.2155C110.036 73.8368 113.902 65.7412 113.902 65.7412C113.902 65.7412 114.256 68.2205 115.466 72.3435C116.056 74.4345 117.266 76.7049 118.328 78.9151C113.636 82.7691 110.744 87.2496 109.711 90.1772C107.853 95.6142 109.298 98.0633 112.043 98.6309C113.282 98.9 115.052 98.3023 116.351 97.7347C118.003 97.1972 119.951 96.2715 121.81 94.8967C124.968 92.5373 128.007 89.2509 127.829 84.8005C127.741 82.7691 127.21 80.7671 126.472 78.8254C130.456 77.1533 135.59 76.227 142.14 77.0034C156.187 78.6761 158.961 87.5481 158.429 91.283C157.898 95.0165 154.947 97.0479 153.974 97.6751C153 98.3029 152.676 98.5118 152.764 98.9596C152.882 99.6168 153.354 99.5874 154.18 99.4676C155.331 99.2587 161.558 96.4502 161.823 89.5795C162.266 80.7972 154.003 71.2083 139.397 71.298ZM31.0427 108.28C26.3801 113.418 19.8887 115.36 17.0853 113.717C14.0757 111.954 15.2559 104.366 20.9803 98.9301C24.462 95.6142 28.9474 92.5367 31.928 90.6551C32.6063 90.2368 33.61 89.6398 34.8199 88.8928C35.0262 88.773 35.1445 88.7134 35.1445 88.7134L35.8527 88.265C37.9473 96.0319 35.9413 102.873 31.0427 108.28ZM64.9772 84.9196C63.3541 88.9229 59.9609 99.1691 57.8954 98.6015C56.1248 98.1236 55.0326 90.3566 57.541 82.6794C58.8098 78.8254 61.4949 74.225 63.0592 72.4332C65.5967 69.5651 68.4001 68.6087 69.0785 69.7746C69.9347 71.298 65.9802 82.4103 64.9772 84.9196ZM92.9804 98.4817C92.3014 98.8404 91.6528 99.0794 91.3573 98.9C91.151 98.7802 91.6528 98.3023 91.6528 98.3023C91.6528 98.3023 95.1643 94.479 96.5508 92.7461C97.3481 91.7308 98.2916 90.536 99.2953 89.1913V89.5795C99.2953 94.1504 94.9276 97.2273 92.9798 98.4817H92.9804ZM114.58 93.4931C114.078 93.1344 114.167 91.9396 115.849 88.2054C116.498 86.7416 118.032 84.2925 120.659 81.9324C120.954 82.8882 121.161 83.8146 121.131 84.6807C121.101 90.4463 117.03 92.5969 114.58 93.4931Z" fill="#CD6799"/>
</g>
<defs>
<clipPath id="clip0_21_371">
<rect width="162" height="123" fill="white" transform="translate(0 0.5)"/>
</clipPath>
</defs>
</svg>
