<svg width="180" height="108" viewBox="0 0 180 108" fill="none" xmlns="http://www.w3.org/2000/svg">
<path d="M90 0C66.0002 0 50.9998 12.0002 45 36C54 23.9998 64.4998 19.4998 76.5 22.5C83.3463 24.2114 88.2401 29.179 93.657 34.6767C102.481 43.6338 112.693 54 135 54C159 54 174 41.9998 180 18C171 30.0002 160.5 34.5002 148.5 31.5C141.654 29.7886 136.76 24.821 131.343 19.3233C122.519 10.3662 112.307 0 90 0ZM45 54C21.0002 54 5.99977 66.0002 0 90C9 77.9998 19.4998 73.4998 31.5 76.5C38.3463 78.2114 43.2401 83.179 48.657 88.6767C57.4812 97.6338 67.6934 108 90 108C114 108 129 95.9998 135 72C126 84.0002 115.5 88.5002 103.5 85.5C96.6537 83.7886 91.7599 78.821 86.343 73.3233C77.5188 64.3662 67.3066 54 45 54Z" fill="url(#paint0_linear_21_370)"/>
<defs>
<linearGradient id="paint0_linear_21_370" x1="-5.0004" y1="34.56" x2="150.459" y2="124.195" gradientUnits="userSpaceOnUse">
<stop stop-color="#2298BD"/>
<stop offset="1" stop-color="#0ED7B5"/>
</linearGradient>
</defs>
</svg>
