<svg width="63" height="65" viewBox="0 0 63 65" fill="none" xmlns="http://www.w3.org/2000/svg">
<path d="M55.0529 35.2275C55.1812 34.2008 55.2774 33.1742 55.2774 32.0833C55.2774 30.9925 55.1812 29.9658 55.0529 28.9392L61.8224 23.6454C62.432 23.1642 62.5924 22.2979 62.2074 21.5921L55.7908 10.4913C55.4058 9.78542 54.5395 9.52875 53.8337 9.78542L45.8449 12.9938C44.1766 11.7104 42.3799 10.6517 40.4229 9.84958L39.2037 1.3475C39.1074 0.5775 38.4337 0 37.6316 0H24.7983C23.9962 0 23.3224 0.5775 23.2262 1.3475L22.007 9.84958C20.0499 10.6517 18.2533 11.7425 16.5849 12.9938L8.59619 9.78542C7.85827 9.49667 7.02411 9.78542 6.63911 10.4913L0.222439 21.5921C-0.194645 22.2979 -0.00214416 23.1642 0.607439 23.6454L7.37702 28.9392C7.24869 29.9658 7.15244 31.0246 7.15244 32.0833C7.15244 33.1421 7.24869 34.2008 7.37702 35.2275L0.607439 40.5212C-0.00214416 41.0025 -0.162561 41.8688 0.222439 42.5746L6.63911 53.6754C7.02411 54.3812 7.89036 54.6379 8.59619 54.3813L16.5849 51.1729C18.2533 52.4562 20.0499 53.515 22.007 54.3171L23.2262 62.8192C23.3224 63.5892 23.9962 64.1667 24.7983 64.1667H37.6316C38.4337 64.1667 39.1074 63.5892 39.2037 62.8192L40.4229 54.3171C42.3799 53.515 44.1766 52.4242 45.8449 51.1729L53.8337 54.3813C54.5716 54.67 55.4058 54.3812 55.7908 53.6754L62.2074 42.5746C62.5924 41.8688 62.432 41.0025 61.8224 40.5212L55.0529 35.2275ZM31.2149 43.3125C25.0229 43.3125 19.9858 38.2754 19.9858 32.0833C19.9858 25.8912 25.0229 20.8542 31.2149 20.8542C37.407 20.8542 42.4441 25.8912 42.4441 32.0833C42.4441 38.2754 37.407 43.3125 31.2149 43.3125Z" fill="white"/>
</svg>
