<svg width="25" height="25" viewBox="0 0 25 25" fill="none" xmlns="http://www.w3.org/2000/svg">
<path fill-rule="evenodd" clip-rule="evenodd" d="M9.39346 8.8375H13.8812V11.0729C14.5277 9.78725 16.1855 8.63208 18.6759 8.63208C23.45 8.63208 24.5834 11.1913 24.5834 15.8869V24.5833H19.7501V16.9563C19.7501 14.2822 19.1036 12.7743 17.4579 12.7743C15.1753 12.7743 14.2268 14.3995 14.2268 16.9551V24.5833H9.39346V8.8375ZM1.1055 24.3779H5.93883V8.63208H1.1055V24.3779ZM6.63121 3.49788C6.63139 3.903 6.55104 4.30412 6.39484 4.67792C6.23864 5.05172 6.0097 5.39075 5.72133 5.67529C5.13698 6.25605 4.34602 6.58112 3.52216 6.57913C2.69976 6.57857 1.91062 6.25432 1.32541 5.6765C1.03809 5.39099 0.809923 5.05158 0.653997 4.67773C0.498071 4.30388 0.417448 3.90294 0.416748 3.49788C0.416748 2.67983 0.742998 1.89683 1.32662 1.31925C1.91132 0.740651 2.70079 0.416264 3.52337 0.416626C4.34746 0.416626 5.13771 0.741668 5.72133 1.31925C6.30375 1.89683 6.63121 2.67983 6.63121 3.49788Z" fill="#E9ECEF"/>
</svg>
