<svg width="147" height="61" viewBox="0 0 167 81" fill="none" xmlns="http://www.w3.org/2000/svg">
<path d="M44.3125 33.9062H50.7188V41.5938H68.8438V3.1875H75.25V41.5938C75.25 42.4688 75.0729 43.3021 74.7188 44.0938C74.3854 44.8646 73.9271 45.5417 73.3438 46.125C72.7812 46.7083 72.1042 47.1667 71.3125 47.5C70.5417 47.8333 69.7188 48 68.8438 48H50.7188C49.8438 48 49.0104 47.8333 48.2188 47.5C47.4479 47.1667 46.7708 46.7083 46.1875 46.125C45.625 45.5417 45.1667 44.8646 44.8125 44.0938C44.4792 43.3021 44.3125 42.4688 44.3125 41.5938V33.9062ZM122.188 19.1875C122.188 25.4375 119.521 29 114.188 29.875L122.625 48H115.531L107.219 30.0938H93.1875V48H86.7812V3.1875H111.312C118.562 3.1875 122.188 6.82292 122.188 14.0938V19.1875ZM93.1875 23.6875H110.969C112.677 23.6875 113.906 23.3125 114.656 22.5625C115.406 21.8125 115.781 20.5833 115.781 18.875V14.4062C115.781 12.6979 115.406 11.4688 114.656 10.7188C113.906 9.96875 112.677 9.59375 110.969 9.59375H93.1875V23.6875Z" fill="#E9ECEF"/>
<path d="M48.0312 60.4375C48.0312 60.0104 48.1094 59.6094 48.2656 59.2344C48.4323 58.8594 48.651 58.5365 48.9219 58.2656C49.2031 57.9844 49.5312 57.7656 49.9062 57.6094C50.2812 57.4427 50.6771 57.3594 51.0938 57.3594H59.6719V50.9531H62.75V74H59.6719V71.1875C59.6406 71.5729 59.5365 71.9375 59.3594 72.2812C59.1823 72.625 58.9531 72.9271 58.6719 73.1875C58.401 73.4375 58.0885 73.6354 57.7344 73.7812C57.3802 73.9271 57.0052 74 56.6094 74H51.0938C50.6771 74 50.2812 73.9219 49.9062 73.7656C49.5312 73.599 49.2031 73.3802 48.9219 73.1094C48.651 72.8281 48.4323 72.5 48.2656 72.125C48.1094 71.75 48.0312 71.349 48.0312 70.9219V60.4375ZM51.0938 70.9219H59.6719V60.4375H51.0938V70.9219ZM91.5469 67.25H80.5312V70.9219H91.5469V74H80.5312C80.1146 74 79.7188 73.9219 79.3438 73.7656C78.9688 73.599 78.6406 73.3802 78.3594 73.1094C78.0885 72.8281 77.8698 72.5 77.7031 72.125C77.5469 71.75 77.4688 71.349 77.4688 70.9219V60.4375C77.4688 60.0104 77.5469 59.6094 77.7031 59.2344C77.8698 58.8594 78.0885 58.5365 78.3594 58.2656C78.6406 57.9844 78.9688 57.7656 79.3438 57.6094C79.7188 57.4427 80.1146 57.3594 80.5312 57.3594H88.4688C88.8958 57.3594 89.2969 57.4427 89.6719 57.6094C90.0469 57.7656 90.3698 57.9844 90.6406 58.2656C90.9219 58.5365 91.1406 58.8594 91.2969 59.2344C91.4635 59.6094 91.5469 60.0104 91.5469 60.4375V67.25ZM80.5312 60.4375V64.1719H88.4688V60.4375H80.5312ZM111.016 74L104.359 57.3594H107.562L112.609 70.3125L117.672 57.3594H120.875L114.219 74H111.016Z" fill="#E9ECEF"/>
</svg>
