<svg width="26" height="26" viewBox="0 0 26 26" fill="none" xmlns="http://www.w3.org/2000/svg">
<path fill-rule="evenodd" clip-rule="evenodd" d="M18.957 15.5805C18.6327 15.4191 17.0423 14.6413 16.7462 14.5329C16.4501 14.4257 16.2346 14.3726 16.018 14.6954C15.8024 15.0161 15.183 15.7419 14.9947 15.9564C14.8053 16.172 14.617 16.198 14.2937 16.0377C13.9704 15.8752 12.9276 15.5361 11.6921 14.4398C10.7309 13.5861 10.081 12.532 9.89271 12.2092C9.70439 11.8874 9.87203 11.713 10.0342 11.5527C10.1801 11.4086 10.3575 11.1768 10.5197 10.9894C10.6819 10.8009 10.7352 10.6665 10.843 10.4509C10.9519 10.2364 10.8974 10.049 10.8158 9.88761C10.7352 9.7262 10.0887 8.14128 9.81869 7.4967C9.55635 6.86945 9.28966 6.95503 9.09154 6.9442C8.90213 6.93553 8.6866 6.93337 8.47107 6.93337C8.25554 6.93337 7.90503 7.01353 7.60894 7.33637C7.31177 7.65812 6.47685 8.43703 6.47685 10.0219C6.47685 11.6058 7.63507 13.1365 7.79726 13.3521C7.95945 13.5666 10.0778 16.8188 13.3227 18.213C14.0956 18.5445 14.6976 18.7428 15.1667 18.8901C15.9418 19.136 16.6471 19.1013 17.2045 19.0179C17.825 18.9258 19.1181 18.239 19.3881 17.4872C19.657 16.7353 19.657 16.0908 19.5764 15.9564C19.4959 15.8221 19.2803 15.7419 18.9559 15.5805H18.957ZM13.0549 23.6004H13.0506C11.1232 23.6008 9.23128 23.0851 7.57302 22.1076L7.18114 21.8758L3.1078 22.9396L4.19526 18.9876L3.93945 18.5824C2.86194 16.8755 2.29171 14.8999 2.29466 12.8841C2.29683 6.97995 7.12345 2.17646 13.0593 2.17646C15.9331 2.17646 18.6348 3.29229 20.6661 5.31595C21.6679 6.30891 22.462 7.48973 23.0024 8.79009C23.5427 10.0904 23.8186 11.4845 23.8141 12.8917C23.812 18.7958 18.9853 23.6004 13.0549 23.6004ZM22.2118 3.7787C21.0124 2.57721 19.5854 1.62454 18.0134 0.97591C16.4413 0.32728 14.7556 -0.00441593 13.0539 4.43923e-05C5.91952 4.43923e-05 0.111032 5.77962 0.108855 12.883C0.105549 15.1437 0.701432 17.3652 1.83638 19.3234L0 26L6.8622 24.2082C8.76049 25.2375 10.8877 25.7768 13.0495 25.7768H13.0549C20.1893 25.7768 25.9978 19.9973 25.9999 12.8928C26.0052 11.1998 25.6731 9.52264 25.0229 7.95823C24.3727 6.39383 23.4172 4.97326 22.2118 3.7787Z" fill="#E9ECEF"/>
</svg>
